<svg width="120" height="100" viewBox="0 0 120 100" fill="none" xmlns="http://www.w3.org/2000/svg">
<g id="triangles" clip-path="url(#clip0_2_2)">
<g id="dark">
<path id="dark 1" opacity="0.7" d="M60 47.7679C61.3333 48.5377 61.3333 50.4623 60 51.2321L24.75 71.5836C23.4166 72.3534 21.75 71.3912 21.75 69.8516L21.75 29.1484C21.75 27.6088 23.4166 26.6466 24.75 27.4164L60 47.7679Z" fill="#2F82FF"/>
<path id="dark 2" opacity="0.7" d="M47 47.7679C48.3333 48.5377 48.3333 50.4623 47 51.2321L11.75 71.5836C10.4167 72.3534 8.75 71.3912 8.75 69.8516L8.75 29.1484C8.75 27.6088 10.4167 26.6466 11.75 27.4164L47 47.7679Z" fill="#2F82FF"/>
</g>
<g id="light">
<path id="light 1" opacity="0.7" d="M47 47.7679C48.3333 48.5377 48.3333 50.4623 47 51.2321L11.75 71.5836C10.4167 72.3534 8.75 71.3912 8.75 69.8516L8.75 29.1484C8.75 27.6088 10.4167 26.6466 11.75 27.4164L47 47.7679Z" fill="#74CDFF"/>
</g>
</g>
<defs>
<clipPath id="clip0_2_2">
<rect width="120" height="100" fill="white"/>
</clipPath>
</defs>
</svg>
